<?xml version="1.0" encoding="UTF-8"?>
<svg id="Ebene_2" data-name="Ebene 2" xmlns="http://www.w3.org/2000/svg" viewBox="0 0 1312.07 235.75">
  <defs>
    <style>
      .cls-1 {
        fill: #fff;
        stroke-width: 0px;
      }
    </style>
  </defs>
  <g id="Ebene_2-2" data-name="Ebene 2">
    <g>
      <path class="cls-1" d="m984.12,63.74c-47.5,0-86,38.5-86,86s38.5,86.01,86,86.01,86-38.51,86-86.01-38.5-86-86-86Zm0,137.88c-28.65,0-51.88-23.23-51.88-51.88s23.23-51.88,51.88-51.88,51.88,23.23,51.88,51.88-23.23,51.88-51.88,51.88Z"/>
      <path class="cls-1" d="m604.12,63.74c-47.5,0-86,38.5-86,86s38.5,86.01,86,86.01,86-38.51,86-86.01-38.5-86-86-86Zm0,137.88c-28.65,0-51.88-23.23-51.88-51.88s23.23-51.88,51.88-51.88,51.88,23.23,51.88,51.88-23.23,51.88-51.88,51.88Z"/>
      <g>
        <polygon class="cls-1" points="517.49 66.71 451.49 231.71 412.82 231.71 432.16 183.37 478.82 66.71 517.49 66.71"/>
        <polygon class="cls-1" points="422.48 159.19 403.13 207.56 346.79 66.71 385.49 66.71 422.48 159.19"/>
      </g>
      <path class="cls-1" d="m207.66,0H23.84C10.67,0,0,10.67,0,23.84v183.83c0,13.16,10.67,23.84,23.84,23.84h183.83c13.16,0,23.84-10.67,23.84-23.84V23.84c0-13.16-10.67-23.84-23.84-23.84ZM46.69,30.14l79.1,44.49-50.74,29.1-28.37-15.95V30.14Zm138.13,92l-38.12,21.86-100.01,57.36v-57.93l49-28.1.32-.19,50.41-28.91,38.39-22.02v57.93Z"/>
      <line class="cls-1" x1="119.46" y1="119.07" x2="119.1" y2="118.87"/>
      <path class="cls-1" d="m288.7,232.25V67.79h38.38v164.46h-38.38Z"/>
      <path class="cls-1" d="m288.7,31.44V9.06c0-4.42,3.58-8.01,8.01-8.01h22.37c4.42,0,8.01,3.58,8.01,8.01v22.37c0,4.42-3.58,8.01-8.01,8.01h-22.37c-4.42,0-8.01-3.58-8.01-8.01Z"/>
      <path class="cls-1" d="m835.74,232.25V1.32h38.7v230.94h-38.7Z"/>
      <polygon class="cls-1" points="1312.07 67.79 1256.52 232.25 1229.06 232.25 1190.09 141.05 1152.91 232.25 1125.76 232.25 1070.53 67.79 1109.85 67.48 1143.68 175.3 1179.75 92.44 1202.85 92.44 1239.16 173.93 1272.75 67.79 1312.07 67.79"/>
      <path class="cls-1" d="m803,104.71h-37v127h-38v-127h-26v-33.48h26.86v-13.38c0-20.11,6.08-33.98,16.03-43.97,16.11-16.17,35.25-12.81,58.11-12.81v31.64c-10,0-23.52-2.05-31,5-7.7,7.26-6.5,17.76-6.63,20.14v12.86h37.63v34Z"/>
    </g>
  </g>
</svg>